<svg xmlns="http://www.w3.org/2000/svg" xmlns:xlink="http://www.w3.org/1999/xlink" viewBox="0 0 658 496" width="658" height="496" preserveAspectRatio="xMidYMid meet" style="width: 100%; height: 100%; transform: translate3d(0px, 0px, 0px); content-visibility: visible;"><defs><clipPath id="__lottie_element_38"><rect width="658" height="496" x="0" y="0"></rect></clipPath></defs><g clip-path="url(#__lottie_element_38)"><g transform="matrix(1.5499999523162842,0,0,1.5499999523162842,152.6280059814453,309.73199462890625)" opacity="1" style="display: block;"><g opacity="1" transform="matrix(1,0,0,1,0,0)"><path fill="rgb(134,120,184)" fill-opacity="1" d=" M39.16999816894531,0 C39.16999816894531,21.632999420166016 21.632999420166016,39.16999816894531 0,39.16999816894531 C-21.632999420166016,39.16999816894531 -39.16999816894531,21.632999420166016 -39.16999816894531,0 C-39.16999816894531,-21.632999420166016 -21.632999420166016,-39.16999816894531 0,-39.16999816894531 C21.632999420166016,-39.16999816894531 39.16999816894531,-21.632999420166016 39.16999816894531,0z"></path></g></g><g transform="matrix(1.5499999523162842,0,0,1.5499999523162842,152.6280059814453,423.4909973144531)" opacity="1" style="display: block;"><g opacity="1" transform="matrix(1,0,0,1,0,0)"><path fill="rgb(134,120,184)" fill-opacity="1" d=" M60.68899917602539,30.344999313354492 C60.68899917602539,-3.1730000972747803 33.518001556396484,-30.344999313354492 0,-30.344999313354492 C-33.518001556396484,-30.344999313354492 -60.68899917602539,-3.1730000972747803 -60.68899917602539,30.344999313354492 C-60.68899917602539,30.344999313354492 60.68899917602539,30.344999313354492 60.68899917602539,30.344999313354492z"></path></g></g><g transform="matrix(1.2999999523162842,0,0,1.2999999523162842,316.4735107421875,134.05068969726562)" opacity="0.14988000000015717" style="display: none;"><g opacity="1" transform="matrix(1,0,0,1,0,0)"><path fill="rgb(134,120,184)" fill-opacity="1" d=" M91.5989990234375,-74.62100219726562 C91.5989990234375,-74.62100219726562 -91.677001953125,-74.50599670410156 -91.677001953125,-74.50599670410156 C-101.28500366210938,-74.5 -109.06800079345703,-66.70700073242188 -109.06199645996094,-57.0989990234375 C-109.06199645996094,-57.0989990234375 -109.00599670410156,32.48500061035156 -109.00599670410156,32.48500061035156 C-109,42.09299850463867 -101.20700073242188,49.875999450683594 -91.5989990234375,49.869998931884766 C-91.5989990234375,49.869998931884766 -81.80599975585938,49.86399841308594 -81.80599975585938,49.86399841308594 C-80.8759994506836,49.862998962402344 -80.01699829101562,50.358001708984375 -79.552001953125,51.16299819946289 C-79.552001953125,51.16299819946289 -82.22000122070312,73.84400177001953 -82.22000122070312,73.84400177001953 C-81.62100219726562,74.87999725341797 -80.125,74.87999725341797 -79.5270004272461,73.84300231933594 C-79.5270004272461,73.84300231933594 -62.21099853515625,51.15299987792969 -62.21099853515625,51.15299987792969 C-61.74700164794922,50.347999572753906 -60.888999938964844,49.85100173950195 -59.95899963378906,49.849998474121094 C-59.95899963378906,49.849998474121094 91.677001953125,49.755001068115234 91.677001953125,49.755001068115234 C101.28500366210938,49.749000549316406 109.06800079345703,41.95600128173828 109.06199645996094,32.347999572753906 C109.06199645996094,32.347999572753906 109.00599670410156,-57.236000061035156 109.00599670410156,-57.236000061035156 C109,-66.84400177001953 101.20700073242188,-74.62699890136719 91.5989990234375,-74.62100219726562z"></path></g></g><g transform="matrix(1.5499999523162842,0,0,1.5499999523162842,498.62799072265625,309.73199462890625)" opacity="1" style="display: block;"><g opacity="1" transform="matrix(1,0,0,1,0,0)"><path fill="rgb(255,166,158)" fill-opacity="1" d=" M39.16999816894531,0 C39.16999816894531,21.632999420166016 21.632999420166016,39.16999816894531 0,39.16999816894531 C-21.632999420166016,39.16999816894531 -39.16999816894531,21.632999420166016 -39.16999816894531,0 C-39.16999816894531,-21.632999420166016 -21.632999420166016,-39.16999816894531 0,-39.16999816894531 C21.632999420166016,-39.16999816894531 39.16999816894531,-21.632999420166016 39.16999816894531,0z"></path></g></g><g transform="matrix(1.5499999523162842,0,0,1.5499999523162842,497.0509948730469,420.3909912109375)" opacity="1" style="display: block;"><g opacity="1" transform="matrix(1,0,0,1,0,0)"><path fill="rgb(255,166,158)" fill-opacity="1" d=" M60.68899917602539,30.344999313354492 C60.68899917602539,-3.1730000972747803 33.518001556396484,-30.344999313354492 0,-30.344999313354492 C-33.518001556396484,-30.344999313354492 -60.68899917602539,-3.1730000972747803 -60.68899917602539,30.344999313354492 C-60.68899917602539,30.344999313354492 60.68899917602539,30.344999313354492 60.68899917602539,30.344999313354492z"></path></g></g><g transform="matrix(1,0,0,1,320,170)" opacity="0" fill="rgb(255,255,255)" font-size="140" font-family="Roboto" font-style="normal" font-weight="700" aria-label="..?" style="display: block;"><g stroke-linecap="butt" stroke-linejoin="round" stroke-miterlimit="4" transform="matrix(1,0,0,1,-85.302001953125,0)" opacity="1" style="display: inherit;"><g><g transform="matrix(1,0,0,1,0,0)" opacity="1" style="display: block;"><path d=" M11.76,-2.15 C13.85,-0.22 16.52,0.75 19.76,0.75 C23.04,0.75 25.72,-0.22 27.82,-2.15 C29.92,-4.09 30.97,-6.61 30.97,-9.71 C30.97,-12.85 29.91,-15.4 27.79,-17.36 C25.67,-19.32 22.99,-20.3 19.76,-20.3 C16.56,-20.3 13.91,-19.32 11.79,-17.36 C9.67,-15.4 8.61,-12.85 8.61,-9.71 C8.61,-6.61 9.66,-4.09 11.76,-2.15z"></path><g opacity="1" transform="matrix(1.399999976158142,0,0,1.399999976158142,0,0)"></g></g></g></g><g stroke-linecap="butt" stroke-linejoin="round" stroke-miterlimit="4" transform="matrix(1,0,0,1,-34.832000732421875,0)" opacity="1" style="display: inherit;"><g><g transform="matrix(1,0,0,1,0,0)" opacity="1" style="display: block;"><path d=" M11.76,-2.15 C13.85,-0.22 16.52,0.75 19.76,0.75 C23.04,0.75 25.72,-0.22 27.82,-2.15 C29.92,-4.09 30.97,-6.61 30.97,-9.71 C30.97,-12.85 29.91,-15.4 27.79,-17.36 C25.67,-19.32 22.99,-20.3 19.76,-20.3 C16.56,-20.3 13.91,-19.32 11.79,-17.36 C9.67,-15.4 8.61,-12.85 8.61,-9.71 C8.61,-6.61 9.66,-4.09 11.76,-2.15z"></path><g opacity="1" transform="matrix(1.399999976158142,0,0,1.399999976158142,0,0)"></g></g></g></g><g stroke-linecap="butt" stroke-linejoin="round" stroke-miterlimit="4" transform="matrix(1,0,0,1,15.638001441955566,0)" opacity="1" style="display: inherit;"><g><g transform="matrix(1,0,0,1,0,0)" opacity="1" style="display: block;"><path d=" M24.78,-2.11 C26.81,-0.16 29.49,0.82 32.81,0.82 C36.14,0.82 38.82,-0.16 40.84,-2.11 C42.87,-4.06 43.89,-6.54 43.89,-9.54 C43.89,-12.58 42.85,-15.09 40.78,-17.06 C38.7,-19.04 36.05,-20.03 32.81,-20.03 C29.58,-20.03 26.92,-19.04 24.85,-17.06 C22.77,-15.09 21.74,-12.58 21.74,-9.54 C21.74,-6.54 22.75,-4.06 24.78,-2.11z M41.22,-30.49 C41.22,-30.49 41.49,-34.66 41.49,-34.66 C42,-39.13 43.98,-43.03 47.44,-46.36 C47.44,-46.36 52.98,-51.63 52.98,-51.63 C57.31,-55.83 60.34,-59.65 62.07,-63.09 C63.8,-66.54 64.67,-70.2 64.67,-74.08 C64.67,-82.61 62,-89.21 56.67,-93.88 C51.34,-98.56 43.84,-100.9 34.18,-100.9 C24.61,-100.9 17.06,-98.44 11.52,-93.51 C5.98,-88.58 3.17,-81.76 3.08,-73.05 C3.08,-73.05 22.9,-73.05 22.9,-73.05 C22.99,-76.7 24.05,-79.57 26.08,-81.65 C28.11,-83.73 30.81,-84.77 34.18,-84.77 C41.29,-84.77 44.84,-80.91 44.84,-73.19 C44.84,-70.64 44.16,-68.21 42.79,-65.9 C41.42,-63.6 38.68,-60.61 34.56,-56.94 C30.43,-53.26 27.59,-49.53 26.05,-45.75 C24.5,-41.96 23.72,-36.87 23.72,-30.49 C23.72,-30.49 41.22,-30.49 41.22,-30.49z"></path><g opacity="1" transform="matrix(1.399999976158142,0,0,1.399999976158142,0,0)"></g></g></g></g></g><g transform="matrix(1.2999999523162842,0,0,1.2999999523162842,336.64349365234375,132.6186981201172)" opacity="1" style="display: none;"><g opacity="1" transform="matrix(1,0,0,1,0,0)"><path fill="rgb(255,166,158)" fill-opacity="1" d=" M-91.5989990234375,-74.62100219726562 C-91.5989990234375,-74.62100219726562 91.677001953125,-74.50599670410156 91.677001953125,-74.50599670410156 C101.28500366210938,-74.5 109.06800079345703,-66.70700073242188 109.06199645996094,-57.0989990234375 C109.06199645996094,-57.0989990234375 109.00599670410156,32.48500061035156 109.00599670410156,32.48500061035156 C109,42.09299850463867 101.20700073242188,49.875999450683594 91.5989990234375,49.869998931884766 C91.5989990234375,49.869998931884766 81.80599975585938,49.86399841308594 81.80599975585938,49.86399841308594 C80.8759994506836,49.862998962402344 80.01699829101562,50.358001708984375 79.552001953125,51.16299819946289 C79.552001953125,51.16299819946289 82.22000122070312,73.84400177001953 82.22000122070312,73.84400177001953 C81.62100219726562,74.87999725341797 80.125,74.87999725341797 79.5270004272461,73.84300231933594 C79.5270004272461,73.84300231933594 62.21099853515625,51.15299987792969 62.21099853515625,51.15299987792969 C61.74700164794922,50.347999572753906 60.888999938964844,49.85100173950195 59.95899963378906,49.849998474121094 C59.95899963378906,49.849998474121094 -91.677001953125,49.755001068115234 -91.677001953125,49.755001068115234 C-101.28500366210938,49.749000549316406 -109.06800079345703,41.95600128173828 -109.06199645996094,32.347999572753906 C-109.06199645996094,32.347999572753906 -109.00599670410156,-57.236000061035156 -109.00599670410156,-57.236000061035156 C-109,-66.84400177001953 -101.20700073242188,-74.62699890136719 -91.5989990234375,-74.62100219726562z"></path></g></g><g transform="matrix(1,0,0,1,342,168)" opacity="1" fill="rgb(255,255,255)" font-size="140" font-family="Roboto" font-style="normal" font-weight="700" aria-label="..!" style="display: block;"><g stroke-linecap="butt" stroke-linejoin="round" stroke-miterlimit="4" transform="matrix(1,0,0,1,-69.51000213623047,94)" opacity="0" style="display: inherit;"><g><g transform="matrix(1,0,0,1,0,0)" opacity="1" style="display: block;"><path d=" M11.76,-2.15 C13.85,-0.22 16.52,0.75 19.76,0.75 C23.04,0.75 25.72,-0.22 27.82,-2.15 C29.92,-4.09 30.97,-6.61 30.97,-9.71 C30.97,-12.85 29.91,-15.4 27.79,-17.36 C25.67,-19.32 22.99,-20.3 19.76,-20.3 C16.56,-20.3 13.91,-19.32 11.79,-17.36 C9.67,-15.4 8.61,-12.85 8.61,-9.71 C8.61,-6.61 9.66,-4.09 11.76,-2.15z"></path><g opacity="1" transform="matrix(1.399999976158142,0,0,1.399999976158142,0,0)"></g></g></g></g><g stroke-linecap="butt" stroke-linejoin="round" stroke-miterlimit="4" transform="matrix(1,0,0,1,-19.040000915527344,94)" opacity="0" style="display: inherit;"><g><g transform="matrix(1,0,0,1,0,0)" opacity="1" style="display: block;"><path d=" M11.76,-2.15 C13.85,-0.22 16.52,0.75 19.76,0.75 C23.04,0.75 25.72,-0.22 27.82,-2.15 C29.92,-4.09 30.97,-6.61 30.97,-9.71 C30.97,-12.85 29.91,-15.4 27.79,-17.36 C25.67,-19.32 22.99,-20.3 19.76,-20.3 C16.56,-20.3 13.91,-19.32 11.79,-17.36 C9.67,-15.4 8.61,-12.85 8.61,-9.71 C8.61,-6.61 9.66,-4.09 11.76,-2.15z"></path><g opacity="1" transform="matrix(1.399999976158142,0,0,1.399999976158142,0,0)"></g></g></g></g><g stroke-linecap="butt" stroke-linejoin="round" stroke-miterlimit="4" transform="matrix(1,0,0,1,31.430002212524414,94)" opacity="0" style="display: inherit;"><g><g transform="matrix(1,0,0,1,0,0)" opacity="1" style="display: block;"><path d=" M11.52,-16.78 C9.49,-14.8 8.48,-12.3 8.48,-9.3 C8.48,-6.29 9.49,-3.8 11.52,-1.85 C13.55,0.11 16.2,1.09 19.48,1.09 C22.81,1.09 25.49,0.11 27.51,-1.85 C29.54,-3.8 30.56,-6.29 30.56,-9.3 C30.56,-12.35 29.54,-14.86 27.51,-16.82 C25.49,-18.78 22.81,-19.76 19.48,-19.76 C16.2,-19.76 13.55,-18.76 11.52,-16.78z M30.01,-99.53 C30.01,-99.53 8.95,-99.53 8.95,-99.53 C8.95,-99.53 11.28,-30.56 11.28,-30.56 C11.28,-30.56 27.68,-30.56 27.68,-30.56 C27.68,-30.56 30.01,-99.53 30.01,-99.53z"></path><g opacity="1" transform="matrix(1.399999976158142,0,0,1.399999976158142,0,0)"></g></g></g></g></g></g></svg>